<svg width="284" height="45" viewBox="0 0 284 45" fill="none" xmlns="http://www.w3.org/2000/svg">
<g clip-path="url(#clip0_94_2)">
<path d="M6.78269 35.2141C6.46945 35.2141 6.26062 35.0069 6.26062 34.696V5.33435C6.26062 5.12711 6.15621 5.02349 5.94738 5.02349H0.522067C0.208827 5.02349 0 4.81625 0 4.50539V0.518099C0 0.20724 0.208827 0 0.522067 0H17.5832C17.8964 0 18.1053 0.20724 18.1053 0.518099V4.50539C18.1053 4.81625 17.8964 5.02349 17.5832 5.02349H12.1579C11.9491 5.02349 11.8446 5.12711 11.8446 5.33435V34.696C11.8446 35.0069 11.6358 35.2141 11.3226 35.2141H6.78269Z" fill="#BF1B49"/>
<path d="M32.247 30.5513C31.2029 33.7635 28.5424 35.6784 24.6791 35.6784C20.8158 35.6784 18.2097 33.7635 17.1655 30.5513C16.7479 29.2581 16.5892 27.9111 16.5892 22.7342C16.5892 17.5574 16.7479 16.2103 17.1655 14.913C18.2097 11.7008 20.8701 9.78589 24.6791 9.78589C28.4881 9.78589 31.2029 11.7008 32.247 14.913C32.6646 16.2062 32.8192 17.5532 32.8192 22.7342C32.8192 27.9152 32.6605 29.2581 32.247 30.5513ZM27.2393 16.4134C26.876 15.3275 26.0407 14.6519 24.6833 14.6519C23.3259 14.6519 22.5449 15.3233 22.1774 16.4134C21.9685 17.1387 21.9184 17.6568 21.9184 22.7301C21.9184 27.8033 21.9685 28.3214 22.1774 29.0467C22.5407 30.1327 23.376 30.8083 24.6833 30.8083C25.9905 30.8083 26.876 30.1368 27.2393 29.0467C27.4482 28.3214 27.4983 27.8033 27.4983 22.7301C27.4983 17.6568 27.4482 17.1387 27.2393 16.4134Z" fill="#BF1B49"/>
<path d="M36.8913 44.5317C36.5781 44.5317 36.3693 44.3244 36.3693 44.0136V10.7723C36.3693 10.4615 36.5781 10.2542 36.8913 10.2542H41.1723C41.4855 10.2542 41.6943 10.4615 41.6943 10.7723V12.7909H41.7445C42.4211 11.0832 43.8327 9.78589 46.4389 9.78589C49.3082 9.78589 51.0289 11.1329 51.9185 13.9307C52.3863 15.3275 52.5951 16.8818 52.5951 22.7342C52.5951 28.5867 52.3863 30.1368 51.9185 31.5378C51.0331 34.3355 49.3082 35.6784 46.4389 35.6784C43.8285 35.6784 42.4211 34.435 41.7445 32.6734H41.6943V44.0136C41.6943 44.3244 41.4855 44.5317 41.1723 44.5317H36.8913ZM47.0152 16.4134C46.6519 15.3275 45.8166 14.6519 44.4592 14.6519C43.1018 14.6519 42.3208 15.3233 41.9533 16.4134C41.7445 17.1387 41.6943 17.6568 41.6943 22.7301C41.6943 27.8033 41.7445 28.3214 41.9533 29.0467C42.3166 30.1327 43.1519 30.8083 44.4592 30.8083C45.7665 30.8083 46.6519 30.1368 47.0152 29.0467C47.2241 28.3214 47.2742 27.8033 47.2742 22.7301C47.2742 17.6568 47.2241 17.1387 47.0152 16.4134Z" fill="#BF1B49"/>
<path d="M56.1409 39.9765C56.0907 39.7154 56.1409 39.5123 56.3497 39.4046L60.3174 38.0078C60.5763 37.9042 60.8395 37.9539 60.994 38.2647C61.5662 39.5082 62.4558 40.1796 63.7589 40.1796C65.3752 40.1796 66.5238 39.1434 66.5238 37.1249V31.8942H66.4694C65.8429 33.6019 64.4354 34.8992 61.8251 34.8992C58.9558 34.8992 57.2351 33.5521 56.3455 30.7585C55.8777 29.3617 55.6689 27.8074 55.6689 22.3695C55.6689 16.9315 55.8777 15.3772 56.3455 13.9804C57.2309 11.1827 58.9558 9.78589 61.8251 9.78589C64.4354 9.78589 65.8429 11.1329 66.4694 12.8945H66.5238V10.7723C66.5238 10.4615 66.7325 10.2542 67.0458 10.2542H71.3226C71.6358 10.2542 71.8447 10.4615 71.8447 10.7723V36.5074C71.8447 42.0489 68.5577 45 63.6001 45C59.6867 45 56.972 42.8779 56.1367 39.9765H56.1409ZM66.2648 28.3255C66.4736 27.6541 66.5238 27.136 66.5238 22.3695C66.5238 17.603 66.4694 17.1387 66.2648 16.4134C65.9014 15.3275 65.1162 14.6519 63.7589 14.6519C62.4015 14.6519 61.6205 15.3233 61.2529 16.4134C61.0441 17.1387 60.994 17.6568 60.994 22.3695C60.994 27.0821 61.0441 27.6499 61.2529 28.3255C61.6163 29.4654 62.4015 30.1368 63.7589 30.1368C65.1162 30.1368 65.8972 29.4654 66.2648 28.3255Z" fill="#373736"/>
<path d="M75.9168 30.7088C75.4991 29.4654 75.3446 28.0686 75.3446 22.7342C75.3446 17.3999 75.4991 16.0031 75.9168 14.7596C76.9609 11.6013 79.4668 9.79004 83.3803 9.79004C87.2937 9.79004 89.8497 11.6013 90.8938 14.7596C91.3115 16.0031 91.466 17.3999 91.466 24.0274C91.466 24.3383 91.2572 24.5455 90.944 24.5455H80.9787C80.7699 24.5455 80.6655 24.6491 80.6655 24.8564C80.6655 27.9649 80.7699 28.5867 80.9245 29.1545C81.2878 30.2446 82.1231 30.8124 83.3761 30.8124C84.8379 30.8124 85.6732 30.141 86.1409 28.5867C86.2454 28.2758 86.4542 28.1722 86.7674 28.2219L90.7852 28.997C91.0985 29.0509 91.2029 29.254 91.1486 29.6187C90.472 33.349 87.444 35.6784 83.3218 35.6784C79.1995 35.6784 76.9567 33.8671 75.9126 30.7088H75.9168ZM80.9787 16.1564C80.7699 16.7243 80.6655 17.3999 80.6655 19.9904C80.6655 20.1976 80.7699 20.3012 80.9787 20.3012H85.8319C86.0407 20.3012 86.1451 20.1976 86.1451 19.9904C86.1451 17.3999 86.0407 16.7284 85.8319 16.1564C85.5186 15.1741 84.6833 14.4985 83.3803 14.4985C82.0772 14.4985 81.292 15.17 80.9787 16.1564Z" fill="#373736"/>
<path d="M93.5543 29.3079C93.5042 28.997 93.6587 28.7359 93.972 28.6861L97.7309 27.9608C98.0441 27.9069 98.3031 28.0644 98.3573 28.3753C98.6163 30.3441 99.8191 31.2766 101.435 31.2766C103.052 31.2766 104.15 30.1907 104.15 28.4292C104.15 26.8749 103.524 25.9423 101.435 25.1672L99.4015 24.3921C96.1145 23.1487 93.9762 20.7654 93.9762 17.089C93.9762 12.9484 96.8997 9.78589 101.44 9.78589C105.98 9.78589 108.222 12.48 108.694 15.4808C108.744 15.8414 108.59 16.1026 108.331 16.1523L104.781 16.8237C104.468 16.8776 104.259 16.7201 104.154 16.4093C103.791 15.1161 103.006 14.1296 101.44 14.1296C99.8734 14.1296 98.988 15.2694 98.988 16.7201C98.988 17.8599 99.6145 18.8961 101.703 19.6712L103.737 20.4463C107.7 21.9467 109.162 24.33 109.162 28.0603C109.162 32.4082 106.343 35.6701 101.385 35.6701C96.7953 35.6701 93.9762 33.1832 93.5585 29.2996L93.5543 29.3079Z" fill="#373736"/>
<path d="M111.969 30.7585C111.501 29.3079 111.342 28.3753 111.342 22.7342C111.342 17.0932 111.501 16.1564 111.969 14.7058C113.013 11.5474 115.464 9.78589 119.223 9.78589C123.604 9.78589 126.632 12.48 126.891 16.5709C126.891 16.9315 126.787 17.089 126.474 17.1387L122.51 17.9138C122.147 17.9636 121.938 17.8102 121.884 17.4496C121.625 15.4808 120.685 14.6519 119.223 14.6519C118.075 14.6519 117.294 15.17 116.926 16.2559C116.717 16.9274 116.667 17.5491 116.667 22.7301C116.667 27.9111 116.722 28.5286 116.926 29.2042C117.29 30.2943 118.075 30.8083 119.223 30.8083C120.685 30.8083 121.625 29.9793 121.884 28.0105C121.934 27.6458 122.143 27.4924 122.51 27.5463L126.474 28.3214C126.787 28.3753 126.891 28.5286 126.891 28.8934C126.632 32.9843 123.604 35.6784 119.223 35.6784C115.464 35.6784 113.013 33.9169 111.969 30.7585Z" fill="#373736"/>
<path d="M140.879 35.2141C140.565 35.2141 140.357 35.0069 140.357 34.696V18.2785C140.357 15.8455 139.417 14.6518 137.642 14.6518C135.867 14.6518 134.981 15.8414 134.981 18.2785V34.6919C134.981 35.0028 134.773 35.21 134.459 35.21H130.178C129.865 35.21 129.656 35.0028 129.656 34.6919V0.518099C129.656 0.20724 129.865 0 130.178 0H134.459C134.773 0 134.981 0.20724 134.981 0.518099V12.7369H135.031C135.917 11.0293 137.433 9.78585 139.83 9.78585C143.589 9.78585 145.673 12.1152 145.673 17.5532V34.6919C145.673 35.0028 145.464 35.21 145.151 35.21H140.87L140.879 35.2141Z" fill="#373736"/>
<path d="M149.591 30.7088C149.173 29.4654 149.019 28.0686 149.019 22.7342C149.019 17.3999 149.177 16.0031 149.591 14.7596C150.635 11.6013 153.141 9.79004 157.054 9.79004C160.968 9.79004 163.524 11.6013 164.568 14.7596C164.986 16.0031 165.14 17.3999 165.14 24.0274C165.14 24.3383 164.931 24.5455 164.618 24.5455H154.653C154.444 24.5455 154.34 24.6491 154.34 24.8564C154.34 27.9649 154.444 28.5867 154.599 29.1545C154.962 30.2446 155.797 30.8124 157.05 30.8124C158.512 30.8124 159.347 30.141 159.815 28.5867C159.919 28.2758 160.128 28.1722 160.441 28.2219L164.459 28.997C164.773 29.0509 164.877 29.254 164.823 29.6187C164.146 33.349 161.118 35.6784 156.996 35.6784C152.874 35.6784 150.631 33.8671 149.587 30.7088H149.591ZM154.653 16.1564C154.444 16.7243 154.34 17.3999 154.34 19.9904C154.34 20.1976 154.444 20.3012 154.653 20.3012H159.506C159.715 20.3012 159.819 20.1976 159.819 19.9904C159.819 17.3999 159.715 16.7284 159.506 16.1564C159.193 15.1741 158.357 14.4985 157.054 14.4985C155.751 14.4985 154.966 15.17 154.653 16.1564Z" fill="#373736"/>
<path d="M179.75 35.2142C179.436 35.2142 179.228 35.0069 179.228 34.6961V18.2786C179.228 15.8456 178.288 14.6519 176.513 14.6519C174.738 14.6519 173.852 15.8414 173.852 18.2786V34.6919C173.852 35.0028 173.644 35.21 173.33 35.21H169.049C168.736 35.21 168.527 35.0028 168.527 34.6919V10.7724C168.527 10.4615 168.736 10.2543 169.049 10.2543H173.33C173.644 10.2543 173.852 10.4615 173.852 10.7724V12.7411H173.902C174.788 11.0335 176.304 9.79004 178.701 9.79004C182.46 9.79004 184.544 12.1194 184.544 17.5574V34.6961C184.544 35.0069 184.335 35.2142 184.022 35.2142H179.741H179.75Z" fill="#373736"/>
<path d="M201.037 35.2141C200.674 35.2141 200.515 35.0608 200.361 34.696L196.03 24.4957L193.941 28.2219V34.696C193.941 35.0069 193.733 35.2141 193.419 35.2141H189.143C188.829 35.2141 188.621 35.0069 188.621 34.696V0.518099C188.621 0.20724 188.829 0 189.143 0H193.419C193.733 0 193.941 0.20724 193.941 0.518099V20.3509L199.317 10.7723C199.525 10.4117 199.68 10.2542 200.048 10.2542H204.429C204.742 10.2542 204.896 10.4615 204.742 10.7723L199.212 19.8867L205.891 34.696C206.049 35.0069 205.891 35.2141 205.577 35.2141H201.037Z" fill="#373736"/>
<path d="M207.507 30.7088C207.089 29.4654 206.935 28.0686 206.935 22.7342C206.935 17.3999 207.093 16.0031 207.507 14.7596C208.551 11.6013 211.057 9.79004 214.97 9.79004C218.884 9.79004 221.44 11.6013 222.484 14.7596C222.902 16.0031 223.056 17.3999 223.056 24.0274C223.056 24.3383 222.847 24.5455 222.534 24.5455H212.569C212.36 24.5455 212.256 24.6491 212.256 24.8564C212.256 27.9649 212.36 28.5867 212.514 29.1545C212.878 30.2446 213.713 30.8124 214.966 30.8124C216.428 30.8124 217.263 30.141 217.731 28.5867C217.835 28.2758 218.044 28.1722 218.357 28.2219L222.375 28.997C222.689 29.0509 222.793 29.254 222.739 29.6187C222.062 33.349 219.034 35.6784 214.912 35.6784C210.79 35.6784 208.547 33.8671 207.503 30.7088H207.507ZM212.569 16.1564C212.36 16.7243 212.256 17.3999 212.256 19.9904C212.256 20.1976 212.36 20.3012 212.569 20.3012H217.422C217.631 20.3012 217.735 20.1976 217.735 19.9904C217.735 17.3999 217.631 16.7284 217.422 16.1564C217.109 15.1741 216.273 14.4985 214.97 14.4985C213.667 14.4985 212.882 15.17 212.569 16.1564Z" fill="#373736"/>
<path d="M237.666 35.2142C237.352 35.2142 237.143 35.0069 237.143 34.6961V18.2786C237.143 15.8456 236.204 14.6519 234.429 14.6519C232.654 14.6519 231.768 15.8414 231.768 18.2786V34.6919C231.768 35.0028 231.559 35.21 231.246 35.21H226.965C226.652 35.21 226.443 35.0028 226.443 34.6919V10.7724C226.443 10.4615 226.652 10.2543 226.965 10.2543H231.246C231.559 10.2543 231.768 10.4615 231.768 10.7724V12.7411H231.818C232.704 11.0335 234.22 9.79004 236.617 9.79004C240.376 9.79004 242.46 12.1194 242.46 17.5574V34.6961C242.46 35.0069 242.251 35.2142 241.938 35.2142H237.657H237.666Z" fill="#373736"/>
<path d="M246.273 29.5689C246.273 29.258 246.482 29.0508 246.795 29.0508H251.231C251.544 29.0508 251.753 29.258 251.753 29.5689V34.696C251.753 35.0068 251.544 35.2141 251.231 35.2141H246.795C246.482 35.2141 246.273 35.0068 246.273 34.696V29.5689Z" fill="#373736"/>
<path d="M266.989 35.2142C266.676 35.2142 266.467 35.0069 266.467 34.6961V18.2786C266.467 15.8456 265.527 14.6519 263.752 14.6519C261.977 14.6519 261.092 15.8414 261.092 18.2786V34.6919C261.092 35.0028 260.883 35.21 260.57 35.21H256.289C255.975 35.21 255.767 35.0028 255.767 34.6919V10.7724C255.767 10.4615 255.975 10.2543 256.289 10.2543H260.57C260.883 10.2543 261.092 10.4615 261.092 10.7724V12.7411H261.142C262.027 11.0335 263.543 9.79004 265.941 9.79004C269.7 9.79004 271.784 12.1194 271.784 17.5574V34.6961C271.784 35.0069 271.575 35.2142 271.262 35.2142H266.981H266.989Z" fill="#373736"/>
<path d="M283.319 35.525C277.789 35.3675 275.856 33.2454 275.856 27.9649V0.518099C275.856 0.20724 276.065 0 276.378 0H280.659C280.972 0 281.181 0.20724 281.181 0.518099V27.9649C281.181 29.6228 281.857 30.3979 283.215 30.659L283.474 30.7129C283.787 30.7626 283.996 30.9699 283.996 31.2807V35.0111C283.996 35.3219 283.787 35.5292 283.474 35.5292H283.319V35.525Z" fill="#373736"/>
</g>
<defs>
<clipPath id="clip0_94_2">
<rect width="284" height="45" fill="white"/>
</clipPath>
</defs>
</svg>
